<mxfile host="app.diagrams.net" modified="2024-06-03T02:11:28.701Z" agent="Mozilla/5.0 (Windows NT 10.0; Win64; x64) AppleWebKit/537.36 (KHTML, like Gecko) Chrome/124.0.0.0 Safari/537.36" etag="KHQJBzubTnBpfv5vizaf" version="24.4.13" type="device">
  <diagram name="Page-1" id="hC7P7CALiDSfE6lzeneL">
    <mxGraphModel dx="2390" dy="1230" grid="1" gridSize="10" guides="1" tooltips="1" connect="1" arrows="1" fold="1" page="1" pageScale="1" pageWidth="1600" pageHeight="900" math="0" shadow="0">
      <root>
        <mxCell id="0" />
        <mxCell id="1" parent="0" />
        <mxCell id="doFeIFtr8LcBnCad3g39-1" value="" style="rounded=1;whiteSpace=wrap;html=1;hachureGap=4;fontFamily=Architects Daughter;fontSource=https%3A%2F%2Ffonts.googleapis.com%2Fcss%3Ffamily%3DArchitects%2BDaughter;arcSize=8;labelBackgroundColor=none;fillColor=#1ba1e2;strokeColor=#006EAF;fontColor=#ffffff;" vertex="1" parent="1">
          <mxGeometry x="320" y="230" width="990" height="440" as="geometry" />
        </mxCell>
        <mxCell id="doFeIFtr8LcBnCad3g39-2" value="&lt;font style=&quot;font-size: 25px;&quot;&gt;&amp;lt;&lt;/font&gt;" style="ellipse;whiteSpace=wrap;html=1;aspect=fixed;strokeColor=none;" vertex="1" parent="1">
          <mxGeometry x="340" y="410" width="50" height="50" as="geometry" />
        </mxCell>
        <mxCell id="doFeIFtr8LcBnCad3g39-3" value="&lt;font style=&quot;font-size: 25px;&quot;&gt;&amp;lt;&lt;/font&gt;" style="ellipse;whiteSpace=wrap;html=1;aspect=fixed;rotation=-180;strokeColor=none;" vertex="1" parent="1">
          <mxGeometry x="1240" y="410" width="50" height="50" as="geometry" />
        </mxCell>
        <mxCell id="doFeIFtr8LcBnCad3g39-12" value="" style="group" vertex="1" connectable="0" parent="1">
          <mxGeometry x="620" y="620" width="430" height="20" as="geometry" />
        </mxCell>
        <mxCell id="doFeIFtr8LcBnCad3g39-5" value="" style="rounded=1;whiteSpace=wrap;html=1;arcSize=50;strokeColor=none;" vertex="1" parent="doFeIFtr8LcBnCad3g39-12">
          <mxGeometry width="70" height="20" as="geometry" />
        </mxCell>
        <mxCell id="doFeIFtr8LcBnCad3g39-6" value="" style="rounded=1;whiteSpace=wrap;html=1;arcSize=50;strokeColor=none;fillColor=#b1ddf0;" vertex="1" parent="doFeIFtr8LcBnCad3g39-12">
          <mxGeometry x="90" width="70" height="20" as="geometry" />
        </mxCell>
        <mxCell id="doFeIFtr8LcBnCad3g39-7" value="" style="rounded=1;whiteSpace=wrap;html=1;arcSize=50;strokeColor=none;fillColor=#b1ddf0;" vertex="1" parent="doFeIFtr8LcBnCad3g39-12">
          <mxGeometry x="180" width="70" height="20" as="geometry" />
        </mxCell>
        <mxCell id="doFeIFtr8LcBnCad3g39-8" value="" style="rounded=1;whiteSpace=wrap;html=1;arcSize=50;strokeColor=none;fillColor=#b1ddf0;" vertex="1" parent="doFeIFtr8LcBnCad3g39-12">
          <mxGeometry x="270" width="70" height="20" as="geometry" />
        </mxCell>
        <mxCell id="doFeIFtr8LcBnCad3g39-9" value="" style="rounded=1;whiteSpace=wrap;html=1;arcSize=50;strokeColor=none;fillColor=#b1ddf0;" vertex="1" parent="doFeIFtr8LcBnCad3g39-12">
          <mxGeometry x="360" width="70" height="20" as="geometry" />
        </mxCell>
      </root>
    </mxGraphModel>
  </diagram>
</mxfile>
